<?xml version="1.0" standalone="no"?>
<!DOCTYPE svg PUBLIC "-//W3C//DTD SVG 20010904//EN"
 "http://www.w3.org/TR/2001/REC-SVG-20010904/DTD/svg10.dtd">
<svg version="1.0" xmlns="http://www.w3.org/2000/svg"
 width="2288.000000pt" height="2288.000000pt" viewBox="0 0 2288.000000 2288.000000"
 preserveAspectRatio="xMidYMid meet">
<metadata>
Created by potrace 1.11, written by Peter Selinger 2001-2013
</metadata>
<g transform="translate(0.000000,2288.000000) scale(0.100000,-0.100000)"
fill="#000000" stroke="none">
<path d="M3578 15256 c-1 -2 -50 -7 -108 -11 -58 -4 -107 -8 -110 -10 -3 -2
-37 -6 -77 -9 -39 -3 -77 -8 -85 -11 -7 -2 -31 -7 -53 -9 -38 -5 -66 -10 -125
-21 -14 -3 -38 -8 -55 -11 -16 -3 -68 -14 -115 -25 -47 -12 -92 -22 -100 -24
-8 -2 -28 -8 -43 -14 -16 -6 -33 -9 -38 -5 -5 3 -9 1 -9 -4 0 -5 -6 -9 -12 -9
-39 -1 -454 -156 -505 -189 -13 -8 -23 -13 -23 -10 0 15 -430 -226 -473 -265
-10 -9 -33 -25 -52 -35 -19 -10 -35 -22 -35 -26 0 -5 -7 -8 -15 -8 -8 0 -15
-4 -15 -10 0 -5 -6 -10 -13 -10 -7 0 -19 -9 -27 -20 -8 -11 -20 -20 -26 -20
-7 0 -14 -3 -16 -7 -1 -5 -30 -30 -63 -57 -201 -162 -394 -356 -545 -546 -29
-36 -60 -75 -70 -86 -33 -40 -150 -214 -150 -224 0 -5 -3 -10 -8 -10 -4 0 -18
-20 -32 -45 -14 -25 -28 -45 -33 -45 -4 0 -6 -4 -3 -9 3 -5 -2 -19 -12 -32
-10 -13 -22 -31 -26 -39 -3 -8 -20 -37 -36 -65 -16 -27 -33 -59 -39 -70 -42
-92 -56 -121 -64 -126 -5 -3 -7 -8 -5 -10 1 -2 -12 -38 -29 -79 -56 -132 -66
-155 -69 -165 -1 -5 -17 -48 -34 -95 -17 -47 -33 -92 -35 -100 -2 -8 -11 -37
-20 -64 -9 -26 -19 -57 -21 -67 -7 -30 -12 -52 -23 -87 -5 -18 -10 -35 -10
-37 -1 -3 -1 -6 -2 -7 -1 -3 -3 -15 -13 -60 -9 -43 -15 -71 -21 -98 -8 -35
-13 -60 -19 -100 -3 -19 -8 -46 -11 -60 -6 -26 -9 -51 -20 -140 -3 -30 -8 -64
-10 -75 -19 -92 -27 -630 -12 -800 11 -122 22 -217 32 -265 2 -14 7 -44 9 -65
3 -22 7 -50 10 -61 2 -12 7 -39 10 -60 4 -22 8 -46 11 -54 2 -8 7 -26 9 -40
13 -57 25 -108 40 -164 9 -33 18 -67 20 -75 2 -9 6 -23 9 -31 3 -8 17 -51 30
-95 38 -125 114 -317 175 -444 30 -64 56 -118 56 -121 1 -3 4 -9 8 -15 3 -5
23 -41 43 -80 79 -146 246 -405 267 -413 4 -2 8 -8 8 -14 0 -23 215 -274 355
-413 78 -78 123 -120 245 -225 14 -12 59 -47 100 -78 41 -32 76 -60 78 -64 2
-5 8 -8 13 -8 5 0 40 -21 77 -48 74 -52 67 -48 207 -130 116 -69 420 -222 440
-222 2 0 16 -5 32 -12 15 -6 30 -12 33 -13 3 -1 12 -5 20 -8 8 -3 42 -16 75
-27 33 -12 69 -25 80 -30 11 -5 29 -11 40 -13 11 -3 67 -19 125 -37 58 -17
123 -35 145 -40 22 -5 70 -15 106 -23 36 -9 82 -18 103 -21 21 -4 41 -8 45
-10 3 -2 31 -7 61 -11 100 -13 115 -15 150 -20 19 -3 62 -8 95 -11 33 -2 80
-7 105 -11 114 -15 680 -7 825 12 72 10 132 17 155 20 14 1 39 5 55 8 17 4 48
9 70 12 52 7 82 13 106 20 11 4 32 8 47 10 15 2 56 11 92 21 36 9 72 18 80 19
8 2 15 4 15 5 0 1 7 3 15 5 72 14 276 81 408 134 129 51 195 81 407 189 17 9
32 18 35 21 3 3 21 14 40 24 70 37 95 52 114 70 11 9 23 17 28 17 17 0 295
202 365 265 6 5 38 32 70 60 61 52 267 256 318 315 69 80 205 249 205 255 0 4
11 21 25 39 37 46 37 45 83 116 23 36 46 70 52 77 5 7 10 15 10 18 0 3 12 24
27 48 50 79 210 389 218 421 2 11 26 68 51 123 8 17 14 33 14 36 0 3 5 18 12
34 6 15 12 30 13 33 1 3 5 14 9 25 17 43 74 225 82 260 1 6 16 66 32 135 27
112 38 163 57 265 3 17 8 48 10 70 3 22 8 58 11 80 3 22 7 51 9 65 1 14 6 59
10 100 12 114 14 159 15 365 0 225 -1 259 -26 505 -1 14 -3 25 -4 25 -1 0 -3
18 -5 40 -2 22 -6 51 -9 65 -2 14 -7 50 -11 80 -4 30 -9 58 -11 61 -2 4 -6 24
-10 45 -3 22 -19 93 -35 159 -44 174 -54 211 -76 275 -8 25 -16 50 -17 55 -2
6 -6 17 -9 25 -3 8 -17 47 -31 85 -64 182 -229 534 -261 557 -5 4 -7 8 -2 8 4
0 -8 24 -26 53 -91 142 -183 282 -192 291 -6 6 -25 31 -42 56 -18 25 -42 57
-55 72 -13 14 -39 46 -58 70 -120 148 -342 367 -495 488 -39 30 -76 60 -83 67
-7 7 -17 13 -21 13 -4 0 -17 9 -28 20 -20 18 -288 200 -296 200 -2 0 -50 26
-108 58 -125 69 -270 137 -405 191 -96 38 -219 82 -239 85 -5 1 -23 6 -40 12
-50 18 -96 32 -185 54 -106 27 -118 30 -155 36 -16 3 -45 9 -64 14 -19 5 -38
7 -43 4 -4 -3 -8 -2 -8 3 0 4 -10 8 -22 9 -13 0 -36 4 -53 7 -16 4 -50 9 -75
11 -25 3 -56 7 -69 10 -13 3 -55 8 -95 11 -39 4 -96 9 -126 12 -62 6 -596 13
-602 9z m547 -789 c22 -3 72 -9 110 -13 77 -9 88 -10 95 -13 3 -1 19 -4 35 -6
93 -11 124 -16 160 -25 51 -13 75 -19 100 -24 80 -15 288 -80 405 -126 98 -39
291 -128 300 -139 3 -3 10 -7 16 -8 6 -1 50 -26 98 -55 48 -29 95 -57 104 -63
16 -9 140 -96 167 -117 379 -294 662 -641 860 -1053 25 -52 46 -98 46 -102 0
-5 7 -19 14 -33 36 -65 141 -375 151 -445 3 -16 9 -41 14 -55 8 -20 22 -92 45
-220 6 -37 24 -173 32 -240 7 -66 10 -610 4 -610 -3 0 -8 -24 -9 -52 -4 -62
-7 -81 -16 -128 -4 -19 -9 -48 -11 -65 -2 -16 -4 -30 -5 -30 -1 0 -3 -11 -5
-25 -2 -14 -6 -36 -9 -50 -3 -14 -10 -46 -16 -72 -13 -66 -36 -147 -73 -258
-17 -52 -32 -97 -32 -100 -1 -3 -9 -22 -18 -44 -9 -21 -17 -41 -17 -43 0 -23
-181 -383 -193 -383 -6 0 -8 -3 -4 -6 5 -5 -47 -101 -63 -114 -3 -3 -25 -35
-48 -72 -24 -37 -52 -77 -63 -90 -10 -13 -22 -28 -26 -33 -20 -26 -88 -112
-100 -125 -117 -135 -243 -259 -368 -363 -85 -71 -92 -77 -130 -104 l-30 -21
0 1250 0 1251 -45 33 c-25 18 -53 40 -62 48 -10 9 -20 16 -22 16 -8 0 -221
155 -224 163 -2 4 -10 7 -17 7 -7 0 -15 4 -17 8 -1 5 -34 30 -73 57 -38 27
-112 79 -162 117 -51 37 -97 68 -102 68 -5 0 -11 3 -13 8 -3 7 -84 68 -138
104 -28 19 -379 272 -395 285 -6 4 -33 24 -60 43 -28 19 -56 40 -63 47 -7 7
-17 13 -21 13 -4 0 -21 11 -37 25 -16 14 -32 25 -36 25 -4 0 -13 6 -21 14 -8
8 -78 60 -156 115 -127 91 -144 100 -164 90 -12 -7 -24 -15 -27 -18 -6 -8
-303 -221 -328 -236 -9 -5 -19 -13 -22 -16 -3 -3 -77 -57 -165 -120 -88 -63
-171 -122 -185 -132 -14 -10 -90 -65 -170 -122 -80 -57 -150 -109 -157 -114
-7 -6 -15 -11 -18 -11 -4 0 -12 -6 -20 -12 -27 -27 -55 -48 -63 -48 -4 0 -19
-10 -34 -23 -29 -24 -309 -226 -336 -242 -9 -5 -19 -12 -22 -15 -13 -13 -79
-60 -85 -60 -4 0 -13 -7 -22 -15 -8 -9 -42 -34 -74 -56 -32 -22 -59 -45 -60
-52 0 -7 -1 -569 -1 -1249 -1 -681 -5 -1238 -10 -1238 -4 0 -16 6 -25 14 -10
8 -56 45 -103 83 -97 77 -313 289 -386 378 -27 33 -55 64 -61 68 -7 4 -13 13
-13 18 0 6 -6 16 -12 23 -19 19 -51 60 -63 78 -5 9 -36 55 -67 102 -32 47 -58
90 -58 95 0 5 -4 11 -9 13 -13 5 -137 239 -183 348 -26 60 -70 169 -73 183 -2
4 -4 9 -5 12 -1 3 -3 8 -5 13 -1 4 -4 14 -8 22 -8 23 -41 124 -43 135 -1 6
-11 44 -22 85 -19 68 -40 165 -48 215 -2 11 -6 34 -9 50 -4 17 -8 44 -10 60
-2 17 -4 30 -5 30 -1 0 -4 31 -16 170 -13 163 -7 570 10 654 3 13 8 47 11 75
5 50 19 136 30 186 3 14 7 34 9 45 6 29 20 99 22 108 1 4 2 8 4 10 2 2 5 15
13 52 2 11 6 27 10 35 3 8 20 65 38 125 18 61 36 112 40 115 3 3 9 18 13 34 4
15 16 49 28 75 11 25 27 62 35 81 85 197 262 489 393 646 177 213 269 301 547
524 27 22 244 161 261 167 9 4 19 9 22 13 7 10 239 122 243 118 2 -2 10 2 18
9 12 10 160 69 194 77 6 2 22 8 37 14 44 18 227 70 323 91 106 23 141 29 270
47 28 3 52 8 56 9 3 2 54 7 115 10 60 4 110 8 111 9 5 5 439 -2 478 -7z"/>
<path d="M21267 13074 c-1 -1 -33 -5 -72 -8 -38 -3 -81 -8 -95 -11 -14 -3 -49
-9 -78 -15 -108 -20 -300 -89 -409 -146 -89 -47 -105 -57 -121 -71 -7 -7 -17
-13 -21 -13 -4 0 -17 -8 -29 -17 -11 -10 -30 -25 -42 -33 -83 -56 -221 -189
-301 -290 -147 -187 -251 -400 -304 -626 -35 -146 -39 -188 -39 -419 0 -205 3
-247 30 -380 11 -55 45 -169 67 -225 12 -30 22 -57 22 -60 2 -29 173 -321 205
-350 3 -3 18 -21 34 -40 92 -113 263 -267 346 -310 14 -7 27 -16 30 -20 10
-14 176 -99 260 -133 104 -41 194 -67 290 -83 45 -8 65 -12 65 -14 0 -11 352
-16 455 -6 83 7 141 15 159 20 9 3 32 8 51 11 19 3 60 13 90 21 30 9 60 17 65
19 6 1 23 7 38 13 16 7 33 12 38 12 5 0 17 4 27 9 47 26 122 60 122 55 0 -3
12 4 26 15 15 12 31 21 36 21 5 0 14 5 21 10 7 6 37 27 68 48 130 86 276 230
356 352 20 30 39 57 42 60 22 19 140 267 141 295 0 3 6 20 13 38 28 65 29 85
6 97 -11 6 -30 13 -41 15 -11 3 -46 12 -77 21 -31 9 -60 17 -66 19 -5 1 -17 4
-25 7 -19 7 -252 73 -349 99 -41 11 -77 21 -80 22 -3 1 -7 -1 -9 -5 -19 -51
-76 -173 -95 -203 -50 -82 -198 -235 -227 -235 -6 0 -10 -4 -10 -10 0 -5 -5
-10 -11 -10 -6 0 -23 -8 -37 -18 -59 -40 -190 -85 -287 -98 -222 -29 -461 17
-637 123 -67 40 -204 160 -243 214 -127 172 -182 336 -189 567 -1 23 1 42 4
42 3 0 5 26 6 58 0 31 4 84 8 117 9 74 69 255 102 306 13 21 24 41 24 44 0 15
67 99 134 168 44 46 173 137 193 137 7 0 13 4 13 8 0 13 180 78 240 86 19 2
46 7 60 10 34 8 235 9 291 2 234 -30 460 -197 569 -421 19 -38 34 -76 32 -82
-2 -7 2 -13 8 -13 5 0 10 -11 10 -24 0 -14 4 -28 10 -31 7 -4 155 37 290 81 8
3 16 5 17 5 2 0 35 12 75 26 40 14 80 26 89 28 9 2 39 11 65 20 27 9 54 18 59
19 55 14 65 20 61 35 -3 9 -10 36 -16 61 -25 95 -144 347 -180 380 -3 3 -17
21 -30 40 -55 79 -175 201 -259 263 -31 23 -57 45 -59 50 -2 4 -8 7 -13 7 -5
0 -28 12 -52 27 -84 54 -295 144 -376 159 -12 3 -51 11 -86 19 -70 17 -109 22
-210 31 -67 6 -283 12 -288 8z"/>
<path d="M9004 12999 c-7 -12 -7 -124 1 -149 3 -11 2 -20 -3 -20 -5 0 -8 -10
-6 -22 1 -13 3 -23 4 -23 1 0 2 -17 4 -37 2 -21 0 -36 -3 -33 -4 2 -6 -9 -5
-23 1 -15 3 -27 4 -27 1 0 2 -17 4 -37 2 -21 0 -38 -4 -38 -4 0 -6 -10 -4 -22
1 -13 3 -23 4 -23 1 0 2 -17 4 -37 2 -21 0 -36 -3 -33 -6 3 -6 -41 -1 -55 1
-3 2 -22 2 -42 -1 -29 3 -38 16 -39 9 0 226 -1 482 -2 l465 -2 2 -1220 c1
-671 2 -1228 3 -1237 0 -16 27 -17 350 -17 l350 0 2 1237 3 1237 465 2 c256 1
474 2 485 2 20 1 20 8 19 325 -1 178 -4 328 -8 334 -7 12 -2624 13 -2632 1z"/>
<path d="M12069 12941 c0 -85 0 -2959 0 -3028 l1 -51 350 1 c348 0 350 0 351
21 0 12 2 275 2 586 l2 565 573 1 c315 1 576 4 580 8 11 12 9 625 -3 629 -5 2
-43 4 -82 3 -40 -1 -73 3 -73 7 0 5 -5 5 -12 1 -17 -10 -228 -11 -228 -1 0 4
-8 3 -17 -2 -22 -11 -31 -11 -60 0 -13 5 -23 5 -23 1 0 -4 -34 -7 -75 -7 -44
0 -75 4 -75 10 0 7 -3 6 -8 0 -9 -13 -282 -14 -282 -1 0 5 -6 4 -12 -1 -16
-10 -128 -10 -145 0 -7 5 -13 4 -13 -1 0 -5 -10 -8 -22 -7 l-23 2 0 333 0 333
660 1 660 1 0 330 0 330 -1013 1 -1012 2 -1 -67z"/>
<path d="M14590 12951 c-1 -84 -1 -2956 0 -3027 l0 -62 338 0 c185 0 344 2
352 4 13 3 15 77 15 586 l0 583 565 2 c311 1 572 2 581 2 13 1 15 38 15 316 0
173 -2 316 -5 316 -3 1 -31 3 -62 4 -31 1 -62 5 -68 9 -6 4 -11 3 -11 -1 0
-12 -144 -10 -152 2 -5 7 -8 7 -8 0 0 -7 -46 -10 -132 -8 -164 4 -138 3 -241
1 -48 -2 -87 1 -87 5 0 5 -5 5 -12 1 -17 -10 -228 -11 -228 -1 0 4 -8 4 -17 0
-10 -5 -45 -8 -78 -8 l-60 1 -3 332 -2 332 22 1 c13 0 311 1 663 2 l640 2 1
331 0 332 -1013 0 -1013 0 0 -57z"/>
<path d="M17733 12998 c-6 -7 -20 -40 -31 -73 -11 -33 -30 -85 -42 -115 -12
-30 -23 -59 -25 -65 -1 -5 -6 -21 -12 -35 -6 -14 -32 -83 -58 -155 -27 -71
-52 -134 -57 -139 -4 -6 -8 -16 -8 -23 0 -7 -21 -65 -46 -130 -26 -65 -48
-125 -49 -133 -2 -8 -4 -16 -5 -17 -2 -2 -3 -6 -5 -10 -1 -5 -7 -21 -14 -38
-7 -16 -35 -91 -63 -165 -28 -74 -55 -146 -61 -160 -6 -14 -11 -29 -13 -35 -1
-5 -30 -82 -64 -170 -34 -88 -66 -173 -72 -190 -5 -16 -14 -39 -19 -50 -5 -11
-22 -58 -39 -105 -17 -47 -34 -94 -39 -105 -5 -11 -26 -65 -46 -120 -20 -55
-41 -111 -47 -125 -6 -14 -12 -29 -14 -35 -2 -9 -75 -207 -91 -245 -3 -8 -7
-19 -9 -25 -6 -24 -106 -282 -114 -297 -6 -10 -10 -23 -10 -29 0 -6 -6 -25
-14 -42 -14 -31 -69 -177 -71 -187 -1 -3 -9 -22 -18 -43 -34 -79 -65 -72 345
-73 403 -1 366 -6 383 51 2 6 22 62 45 125 23 63 48 133 55 155 7 22 22 64 34
93 11 28 18 52 15 52 -4 0 -2 6 3 13 6 6 20 42 33 80 23 66 24 67 59 67 40 1
1085 1 1144 0 27 0 39 -5 43 -17 3 -10 9 -27 13 -38 5 -11 8 -22 9 -25 0 -5
28 -81 42 -115 5 -11 29 -81 55 -155 26 -74 59 -169 75 -210 l27 -75 380 -1
381 0 -8 25 c-4 14 -14 40 -21 56 -7 17 -13 32 -14 35 -5 16 -19 51 -36 95
-10 28 -19 55 -19 60 0 6 -6 21 -13 35 -7 14 -23 54 -36 90 -12 36 -25 72 -28
80 -4 8 -7 17 -8 20 -1 3 -7 18 -13 33 -7 16 -12 30 -12 32 0 2 -5 16 -12 32
-6 15 -12 33 -14 38 -1 6 -25 71 -54 145 -28 74 -52 140 -54 145 -1 9 -35 99
-56 150 -5 11 -56 151 -115 310 -58 160 -111 301 -117 315 -6 14 -12 30 -14
35 -3 11 -101 279 -113 310 -25 59 -44 111 -82 215 -22 63 -47 129 -54 145 -6
17 -17 44 -23 60 -5 17 -14 39 -18 50 -4 11 -8 22 -9 25 -3 10 -17 45 -30 80
-8 19 -37 98 -65 175 -28 77 -63 169 -77 205 -14 36 -26 70 -28 75 -1 6 -8 25
-15 43 l-12 32 -403 0 c-310 0 -405 -3 -412 -12z m487 -1028 c34 -96 63 -182
65 -190 4 -12 57 -163 78 -220 3 -8 22 -64 42 -125 21 -60 53 -152 71 -202
l33 -92 -350 -1 c-192 -1 -356 -1 -364 -1 -30 2 -45 4 -45 9 0 5 70 209 83
242 5 14 31 86 57 160 26 74 74 207 105 295 31 88 70 196 85 240 16 44 34 94
40 110 l12 30 13 -40 c7 -22 41 -119 75 -215z"/>
</g>
</svg>
